<svg width="20" height="19" viewBox="0 0 20 19" fill="none" xmlns="http://www.w3.org/2000/svg">
<path d="M6.56524 4.74935C7.36909 5.39477 8.32467 5.82874 9.34327 6.01099V0.632105L10.4502 0L11.5562 0.632105V6.01099C12.575 5.82856 13.5308 5.39461 14.3351 4.74935L16.3446 5.89965C14.7742 7.43726 12.6544 8.29971 10.4454 8.29971C8.23638 8.29971 6.11654 7.43726 4.5462 5.89965L6.56524 4.74935ZM9.00748 18.4852C9.56748 16.3699 9.26152 14.1213 8.15606 12.2279C7.05061 10.3346 5.23496 8.94939 3.10353 8.37325V10.6747C4.07049 11.0409 4.92839 11.6428 5.59769 12.4245L0.890625 15.114V16.3791L1.99751 17.0077L6.70371 14.3183C7.05352 15.2826 7.15145 16.3188 6.98844 17.3306L9.00748 18.4852ZM17.7916 8.37325C15.6612 8.95068 13.847 10.3364 12.7426 12.2296C11.6382 14.1227 11.3329 16.3706 11.8928 18.4852L13.9067 17.3341C13.744 16.3222 13.842 15.2861 14.1914 14.3217L18.8941 17.0077L20.0002 16.3756V15.114L15.2931 12.4245C15.9626 11.643 16.8204 11.0411 17.7873 10.6747L17.7916 8.37325Z" fill="#231F20"/>
</svg>
