<svg width="179" height="38" viewBox="0 0 179 38" fill="none" xmlns="http://www.w3.org/2000/svg">
<path d="M11.6653 9.76323C13.3178 11.09 15.2821 11.9821 17.3761 12.3568V1.29942L19.6515 0L21.9251 1.29942V12.3568C24.0195 11.9817 25.9843 11.0897 27.6377 9.76323L31.7687 12.1279C28.5405 15.2888 24.1828 17.0617 19.6417 17.0617C15.1006 17.0617 10.7429 15.2888 7.51474 12.1279L11.6653 9.76323ZM16.6858 38C17.837 33.6515 17.208 29.0291 14.9355 25.137C12.6631 21.2448 8.93063 18.3972 4.54905 17.2129V21.9439C6.53684 22.6967 8.30042 23.934 9.6763 25.5411L0 31.0698V33.6704L2.27542 34.9627L11.9499 29.4341C12.669 31.4165 12.8704 33.5465 12.5352 35.6265L16.6858 38ZM34.7432 17.2129C30.3639 18.3999 26.6343 21.2485 24.3641 25.1402C22.0938 29.032 21.4661 33.653 22.6172 38L26.757 35.6336C26.4227 33.5536 26.624 31.4237 27.3424 29.4411L37.0098 34.9627L39.2834 33.6633V31.0698L29.6071 25.5411C30.9833 23.9344 32.7468 22.6972 34.7343 21.9439L34.7432 17.2129ZM110.207 12.1279H112.451V31.0698H110.207V27.3723C109.374 28.6406 108.23 29.68 106.882 30.3938C105.534 31.1076 104.026 31.4728 102.497 31.4554C99.8803 31.4208 97.3827 30.3677 95.5447 28.5242C93.7067 26.6806 92.6762 24.1949 92.6762 21.605C92.6762 19.0151 93.7067 16.5294 95.5447 14.6858C97.3827 12.8423 99.8803 11.7892 102.497 11.7546C104.026 11.7372 105.534 12.1023 106.882 12.8162C108.23 13.53 109.374 14.5694 110.207 15.8377V12.1279ZM110.207 21.5988C110.207 20.0896 109.755 18.6142 108.908 17.3593C108.061 16.1044 106.856 15.1263 105.448 14.5487C104.039 13.9711 102.488 13.82 100.993 14.1145C99.497 14.4089 98.1231 15.1357 97.0448 16.2029C95.9665 17.2701 95.2321 18.6298 94.9346 20.1101C94.6371 21.5904 94.7898 23.1247 95.3734 24.5191C95.957 25.9135 96.9453 27.1053 98.2132 27.9438C99.4812 28.7823 100.972 29.2298 102.497 29.2298C103.51 29.231 104.513 29.0344 105.449 28.6513C106.385 28.2682 107.235 27.7062 107.952 26.9973C108.668 26.2885 109.236 25.4468 109.623 24.5205C110.01 23.5941 110.209 22.6013 110.207 21.5988ZM136.511 5.66074L134.269 6.93374V12.1279H122.867V5.66074L120.626 6.93374V12.1279H117.617V14.2654H120.626V26.7402C120.62 27.3081 120.728 27.8716 120.944 28.3978C121.16 28.924 121.48 29.4024 121.884 29.8053C122.289 30.2082 122.77 30.5274 123.301 30.7445C123.831 30.9616 124.4 31.0721 124.974 31.0698H128.309V28.8513H124.974C124.408 28.8438 123.868 28.6146 123.474 28.2138C123.079 27.813 122.86 27.2735 122.867 26.7137V14.2654H134.269V26.7402C134.262 27.306 134.369 27.8676 134.583 28.3924C134.797 28.9171 135.114 29.3947 135.516 29.7974C135.917 30.2 136.396 30.5198 136.923 30.7383C137.451 30.9567 138.017 31.0694 138.589 31.0698H141.953V28.8513H138.589C138.028 28.8365 137.496 28.604 137.107 28.204C136.718 27.8041 136.504 27.2687 136.511 26.7137V14.2654H141.953V12.1279H136.511V5.66074ZM85.5461 19.8399V31.0698H87.7877V19.8399C87.7877 15.1211 84.1281 11.7405 79.604 11.7405C76.6774 11.7405 74.0124 13.2283 72.5358 16.2603C71.0325 13.2565 68.3941 11.7405 65.496 11.7405C60.9808 11.7405 57.3124 15.1123 57.3124 19.8399V31.0698H59.5558V19.8399C59.5558 16.3466 62.2119 13.9678 65.4889 13.9678C68.766 13.9678 71.4417 16.3466 71.4417 19.8399V31.0698H73.6833V19.8399C73.6833 16.3466 76.3394 13.9678 79.6164 13.9678C82.8935 13.9678 85.5461 16.3466 85.5461 19.8399ZM178.153 13.9678H179V11.7493H178.153C173.638 11.7493 169.969 15.1211 169.969 19.8487V31.0786H172.213V19.8399C172.22 16.3466 174.876 13.9678 178.153 13.9678ZM165.248 21.5988C165.248 21.8154 165.219 22.0601 165.219 22.2767H147.479C147.834 26.1785 151.286 29.2298 155.76 29.2298C158.521 29.2298 160.708 28.0677 162.131 26.2806L164.099 27.3899C162.266 29.8549 159.341 31.4501 155.76 31.4501C149.799 31.4501 145.342 27.0395 145.342 21.59C145.377 19.0004 146.441 16.5285 148.304 14.7094C150.166 12.8904 152.678 11.8705 155.295 11.8705C157.912 11.8705 160.423 12.8904 162.286 14.7094C164.149 16.5285 165.213 19.0004 165.248 21.59V21.5988ZM147.594 20.1392H162.994C162.282 16.6177 159.03 13.9678 155.294 13.9678C151.558 13.9678 148.306 16.6177 147.594 20.1392Z" fill="#231F20"/>
</svg>
